<svg width="1290" height="387" viewBox="0 0 1290 387" fill="none" xmlns="http://www.w3.org/2000/svg">
<rect x="479.516" y="59.0229" width="217.029" height="213.411" fill="white"/>
<rect x="479.516" y="59.0229" width="217.029" height="213.411" fill="white"/>
<rect x="863.836" y="316.744" width="64.2043" height="28.9371" fill="white"/>
<rect x="863.836" y="316.744" width="64.2043" height="28.9371" fill="white"/>
<rect x="1019.38" y="316.744" width="64.2043" height="28.9371" fill="white"/>
<rect x="1019.38" y="316.744" width="64.2043" height="28.9371" fill="white"/>
<rect x="1160.45" y="325.787" width="64.2043" height="28.9371" fill="white"/>
<rect x="1160.45" y="325.787" width="64.2043" height="28.9371" fill="white"/>
<mask id="path-5-outside-1_78_1415" maskUnits="userSpaceOnUse" x="0" y="0" width="1290" height="387" fill="black">
<rect fill="white" width="1290" height="387"/>
<path d="M452.7 214.252C437.268 204.81 423.288 191.277 416.975 175.073C416.342 173.45 416.438 171.651 417.095 170.037C425.574 149.2 433.03 118.371 435.797 82.7695L420.883 78.9261C420.828 78.9117 420.772 78.8967 420.717 78.881C420.216 78.7389 419.732 78.5517 419.27 78.323L416.049 90.808C416.036 90.8551 416.024 90.9022 416.011 90.949C415.487 92.8197 414.365 94.4677 412.816 95.6417C411.268 96.8157 409.378 97.4512 407.434 97.4512C405.49 97.4512 403.6 96.8157 402.051 95.6417C400.503 94.4678 399.381 92.8197 398.857 90.949C398.844 90.9018 398.831 90.8544 398.819 90.8069L393.187 68.9657L382.316 66.1641H262.067C258.132 66.1641 254.942 69.3522 254.942 73.2849V106.317C254.942 110.25 258.132 113.438 262.067 113.438H370.913C375.098 113.438 378.398 117.036 377.803 121.176C369.755 177.183 329.34 221.416 255.556 229.299C251.851 229.695 248.966 232.777 248.966 236.502V270.329C248.966 274.528 252.596 277.821 256.768 277.327C314.237 270.52 352.256 250.481 377.556 222.369C380.964 218.583 387.234 219.028 390.171 223.188C401.495 239.227 419.133 255.407 442.382 266.521L455.932 226.575C456.534 224.798 456.424 222.704 455.506 220.716C454.519 218.58 453.584 216.424 452.7 214.252Z"/>
<path d="M400.086 67.187C399.768 65.9548 399.125 64.8303 398.225 63.9306C397.325 63.0308 396.2 62.3885 394.967 62.0707L373.111 56.4381C372.738 56.3324 372.41 56.1079 372.176 55.7988C371.942 55.4898 371.816 55.113 371.816 54.7256C371.816 54.3382 371.942 53.9614 372.176 53.6523C372.41 53.3433 372.738 53.1188 373.111 53.013L394.967 47.3769C396.199 47.0594 397.324 46.4177 398.224 45.5186C399.125 44.6194 399.768 43.4957 400.086 42.2642L405.722 20.4212C405.827 20.0471 406.051 19.7175 406.361 19.4827C406.671 19.2479 407.049 19.1208 407.437 19.1208C407.826 19.1208 408.204 19.2479 408.514 19.4827C408.824 19.7175 409.048 20.0471 409.153 20.4212L414.785 42.2642C415.103 43.4964 415.746 44.6208 416.646 45.5206C417.546 46.4204 418.672 47.0626 419.905 47.3805L441.761 53.0095C442.137 53.1131 442.468 53.3371 442.704 53.6471C442.94 53.9571 443.068 54.3359 443.068 54.7256C443.068 55.1152 442.94 55.4941 442.704 55.8041C442.468 56.1141 442.137 56.3381 441.761 56.4417L419.905 62.0707C418.672 62.3885 417.546 63.0308 416.646 63.9306C415.746 64.8303 415.103 65.9548 414.785 67.187L409.149 89.03C409.044 89.4041 408.82 89.7337 408.51 89.9685C408.201 90.2033 407.823 90.3304 407.434 90.3304C407.045 90.3304 406.667 90.2033 406.357 89.9685C406.048 89.7337 405.823 89.4041 405.719 89.03L400.086 67.187Z"/>
<path d="M442.893 80.0923C442.655 79.1682 442.173 78.3248 441.498 77.65C440.823 76.9752 439.979 76.4935 439.054 76.2551L422.662 72.0308C422.383 71.9515 422.137 71.7832 421.961 71.5514C421.786 71.3196 421.691 71.037 421.691 70.7465C421.691 70.4559 421.786 70.1733 421.961 69.9415C422.137 69.7097 422.383 69.5414 422.662 69.4621L439.054 65.2351C439.978 64.9969 440.822 64.5157 441.497 63.8414C442.172 63.167 442.655 62.3243 442.893 61.4007L447.12 45.0188C447.199 44.7382 447.367 44.491 447.599 44.3149C447.832 44.1388 448.115 44.0435 448.407 44.0435C448.698 44.0435 448.982 44.1388 449.214 44.3149C449.446 44.491 449.615 44.7382 449.693 45.0188L453.917 61.4007C454.156 62.3248 454.638 63.1681 455.313 63.8429C455.988 64.5177 456.832 64.9994 457.757 65.2378L474.149 69.4594C474.43 69.5371 474.679 69.7051 474.856 69.9376C475.033 70.1701 475.129 70.4542 475.129 70.7465C475.129 71.0387 475.033 71.3228 474.856 71.5553C474.679 71.7878 474.43 71.9558 474.149 72.0335L457.757 76.2551C456.832 76.4935 455.988 76.9752 455.313 77.65C454.638 78.3248 454.156 79.1682 453.917 80.0923L449.691 96.4741C449.612 96.7547 449.444 97.0019 449.211 97.178C448.979 97.3541 448.696 97.4494 448.404 97.4494C448.113 97.4494 447.829 97.3541 447.597 97.178C447.364 97.0019 447.196 96.7547 447.118 96.4741L442.893 80.0923Z"/>
<path d="M1278 180.211C1278 184.481 1274.27 187.791 1270.02 187.281L1171.6 175.458C1167.36 174.949 1163.62 178.258 1163.62 182.528V272.761C1163.62 276.693 1160.43 279.881 1156.5 279.881H1119.95C1116.01 279.881 1112.82 276.693 1112.82 272.761V65.4059C1112.82 61.4732 1116.01 58.2851 1119.95 58.2851H1156.5C1160.43 58.2851 1163.62 61.4732 1163.62 65.4059V120.144C1163.62 123.76 1166.33 126.801 1169.93 127.218L1271.7 139.004C1275.29 139.42 1278 142.462 1278 146.078V180.211Z"/>
<path d="M803.125 111.691C806.419 111.691 809.194 114.156 809.588 117.433L811.099 129.991C811.52 133.491 814.64 136.022 818.144 135.706L909.864 127.44C913.673 127.097 916.963 130.112 916.882 133.943C915.52 198.215 895.252 226.638 847.972 237.729C844.008 238.659 840.291 235.573 840.291 231.494V201.819C840.291 198.519 842.771 195.791 845.984 195.067C857.346 192.509 864.251 186.792 867.578 178.715C869.178 174.831 865.644 171.171 861.471 171.581L823.519 175.311C819.871 175.669 817.238 178.974 817.696 182.618L828.903 271.691C829.393 275.586 826.363 279.029 822.445 279.029H792.61C789.313 279.029 786.537 276.559 786.146 273.279L775.757 185.931C775.337 182.401 772.173 179.858 768.643 180.214L753.042 181.784C749.209 182.17 745.882 179.155 745.882 175.295V148.079C745.882 144.711 748.44 141.897 751.786 141.584L763.28 140.509C766.95 140.166 769.603 136.841 769.131 133.179L767.306 119.05C766.803 115.148 769.835 111.691 773.762 111.691H803.125Z"/>
<path d="M1054.79 136.626C1054.83 132.694 1058.02 129.493 1061.95 129.493H1087.89C1091.82 129.493 1095.02 132.716 1094.95 136.648C1093.24 231.833 1056.62 269.638 961.483 275.111C957.446 275.344 954.052 272.106 954.052 268.065V242.151C954.052 238.376 957.023 235.262 960.791 235.004C1037.72 229.731 1053.89 212.027 1054.79 136.626ZM967.319 129.917C970.916 129.917 973.949 132.596 974.391 136.163L981.885 196.711C982.411 200.958 979.096 204.706 974.814 204.706H950.251C946.654 204.706 943.621 202.026 943.18 198.459L935.686 137.912C935.16 133.665 938.475 129.917 942.757 129.917H967.319ZM1021.16 129.917C1024.76 129.917 1027.8 132.607 1028.23 136.183L1035.56 196.73C1036.07 200.971 1032.76 204.706 1028.48 204.706H1004.74C1001.14 204.706 998.111 202.026 997.67 198.459L990.176 137.912C989.65 133.665 992.965 129.917 997.247 129.917H1021.16Z"/>
<path fill-rule="evenodd" clip-rule="evenodd" d="M532.901 288.615C529.4 287.001 525.417 286.674 521.766 287.911L459.716 308.932C448.532 312.721 437.855 302.05 441.646 290.872L462.679 228.861C463.917 225.212 463.591 221.231 461.975 217.732C448.378 188.292 445.027 155.081 452.563 123.424C460.565 89.8082 480.318 60.1541 508.262 39.8055C536.206 19.4569 570.503 9.75186 604.973 12.4394C639.443 15.1269 671.819 30.0302 696.268 54.4636C720.716 78.8971 735.628 111.254 738.317 145.703C741.006 180.153 731.295 214.429 710.935 242.356C690.574 270.283 660.902 290.024 627.266 298.022C595.589 305.553 562.359 302.204 532.901 288.615ZM688.844 111.61C692.713 111.52 695.802 108.359 695.802 104.492V76.2997C695.802 72.2849 692.483 69.0639 688.468 69.182L498.618 74.7657C494.766 74.879 491.702 78.0323 491.702 81.8834V109.663C491.702 113.675 495.017 116.895 499.029 116.781L582.07 114.426C586.083 114.312 589.403 117.53 589.384 121.542C589.36 126.588 589.293 132.455 589.106 137.197C588.963 140.817 585.952 143.54 582.327 143.54H492.942C489.007 143.54 485.817 146.728 485.817 150.661V178.901C485.817 182.834 489.007 186.022 492.942 186.022H574.79C579.446 186.022 582.875 190.456 580.787 194.615C572.6 210.927 552.275 223.953 506.278 227.183C502.483 227.449 499.471 230.571 499.471 234.374V264.423C499.471 268.495 502.893 271.745 506.957 271.46C585.867 265.912 621.16 236.857 630.242 192.088C630.945 188.626 633.92 186.022 637.455 186.022H692.444C696.379 186.022 699.569 182.834 699.569 178.901V150.661C699.569 146.728 696.379 143.54 692.444 143.54H643.382C639.263 143.54 635.966 140.06 636.066 135.945C636.158 132.157 636.217 127.855 636.271 123.87C636.292 122.366 636.312 120.906 636.333 119.537C636.39 115.77 639.42 112.765 643.189 112.677L688.844 111.61Z"/>
<path d="M988.305 372.246H949.163C937.346 372.246 931.561 365.85 931.438 358.469C931.315 352.072 933.777 347.151 940.054 343.461L964.057 329.191H933.9V310.739H971.442C983.259 310.739 989.044 317.135 989.167 324.516C989.29 330.913 986.828 335.834 980.551 339.524L956.548 353.794H988.305V372.246Z"/>
<path fill-rule="evenodd" clip-rule="evenodd" d="M842.07 330.79C842.07 355.517 860.78 374.092 885.89 374.092C911 374.092 929.71 355.517 929.71 330.79C929.71 306.064 911 287.489 885.89 287.489C860.78 287.489 842.07 306.064 842.07 330.79ZM907.882 330.791C907.882 318.836 898.036 309.145 885.89 309.145C873.744 309.145 863.899 318.836 863.899 330.791C863.893 334.734 864.987 338.603 867.061 341.977L865.1 348.54C864.987 348.917 864.98 349.317 865.078 349.697C865.177 350.078 865.378 350.425 865.66 350.703C865.942 350.981 866.295 351.179 866.682 351.276C867.068 351.373 867.474 351.365 867.857 351.254L874.525 349.324C877.953 351.366 881.884 352.442 885.89 352.436C898.036 352.436 907.882 342.746 907.882 330.791ZM875.861 328.495C876.479 327.886 877.318 327.544 878.193 327.544C879.068 327.544 879.907 327.886 880.526 328.495C881.145 329.104 881.492 329.93 881.492 330.791C881.492 331.652 881.145 332.478 880.526 333.087C879.907 333.696 879.068 334.038 878.193 334.038C877.318 334.038 876.479 333.696 875.861 333.087C875.242 332.478 874.895 331.652 874.895 330.791C874.895 329.93 875.242 329.104 875.861 328.495ZM891.255 328.495C891.874 327.886 892.713 327.544 893.588 327.544C894.462 327.544 895.301 327.886 895.92 328.495C896.539 329.104 896.886 329.93 896.886 330.791C896.886 331.652 896.539 332.478 895.92 333.087C895.301 333.696 894.462 334.038 893.588 334.038C892.713 334.038 891.874 333.696 891.255 333.087C890.636 332.478 890.289 331.652 890.289 330.791C890.289 329.93 890.636 329.104 891.255 328.495Z"/>
<path d="M1047.08 371.631C1024.07 371.631 1006.52 354.068 1006.52 331.747C1006.52 309.426 1024.07 291.864 1047.08 291.864C1059.66 291.864 1072.04 298.006 1078.29 308.788C1079.21 310.385 1078.53 312.377 1076.91 313.271L1065.66 319.497C1063.95 320.445 1061.83 319.804 1060.64 318.245C1057.61 314.243 1053.39 311.692 1046.16 311.692C1035.34 311.692 1028.17 319.85 1028.17 331.747C1028.17 343.644 1035.12 351.802 1046.16 351.802C1053.28 351.802 1057.69 349.332 1060.63 345.439C1061.85 343.824 1064.04 343.1 1065.81 344.08L1076.91 350.223C1078.53 351.117 1079.21 353.109 1078.29 354.706C1072.04 365.489 1059.66 371.631 1047.08 371.631Z"/>
<path d="M1108.78 366.371C1108.78 368.337 1107.19 369.931 1105.22 369.931H1091.84C1089.87 369.931 1088.28 368.337 1088.28 366.371V290.779C1088.28 288.812 1089.87 287.218 1091.84 287.218H1105.22C1107.19 287.218 1108.78 288.812 1108.78 290.779V308.924C1108.78 311.639 1111.76 313.422 1114.37 312.679C1116.88 311.965 1119.6 311.579 1122.45 311.579C1140.33 311.579 1149.22 322.343 1149.22 340.585V366.351C1149.22 368.325 1147.61 369.922 1145.64 369.911L1132.26 369.837C1130.3 369.826 1128.72 368.236 1128.72 366.277V342.738C1128.72 336.393 1125.3 330.727 1119.15 330.727C1112.66 330.727 1108.78 335.713 1108.78 342.738V366.371Z"/>
<path d="M1186.27 371.631C1169.64 371.631 1158.36 358.034 1158.36 341.491C1158.36 325.062 1171.92 311.466 1189.69 311.466C1207.91 311.466 1221.01 324.156 1221.01 341.491V366.371C1221.01 368.337 1219.42 369.931 1217.45 369.931H1202.86C1202.19 369.931 1201.65 369.388 1201.65 368.719C1201.65 367.632 1200.28 367.051 1199.4 367.698C1196 370.22 1191.62 371.631 1186.27 371.631ZM1189.69 352.482C1196.18 352.482 1200.51 347.497 1200.51 341.605C1200.51 335.6 1196.18 330.614 1189.69 330.614C1183.2 330.614 1178.87 335.6 1178.87 341.605C1178.87 347.497 1183.2 352.482 1189.69 352.482Z"/>
<path d="M1264.74 371.744C1246.17 371.744 1237.52 360.867 1237.52 345.797V333.835C1237.52 331.868 1235.92 330.274 1233.95 330.274H1231.4C1229.43 330.274 1227.83 328.68 1227.83 326.714V316.839C1227.83 314.873 1229.43 313.278 1231.4 313.278H1233.95C1235.92 313.278 1237.52 311.684 1237.52 309.718V302.676C1237.52 300.709 1239.11 299.115 1241.08 299.115H1254.46C1256.42 299.115 1258.02 300.709 1258.02 302.676V309.718C1258.02 311.684 1259.61 313.278 1261.58 313.278H1273.14C1275.1 313.278 1276.7 314.873 1276.7 316.839V326.714C1276.7 328.68 1275.1 330.274 1273.14 330.274H1261.58C1259.61 330.274 1258.02 331.868 1258.02 333.835V345.117C1258.02 350.556 1261.32 353.615 1266.68 353.615C1267.92 353.615 1269.46 353.464 1271.04 353.171C1273.69 352.679 1276.7 354.618 1276.7 357.313V367.273C1276.7 368.564 1276 369.775 1274.79 370.203C1271.86 371.23 1267.86 371.744 1264.74 371.744Z"/>
<path d="M12.0001 271.792C11.9761 276.71 16.702 280.261 21.3343 278.627C83.2944 256.769 122.312 205.019 138.593 137.983C139.407 134.633 142.377 132.23 145.819 132.23H152.015C155.992 132.23 159.245 135.403 159.35 139.385L162.819 270.434C162.924 274.416 166.177 277.589 170.154 277.589H209.263C213.417 277.589 216.743 274.138 216.596 269.98L212.004 139.839C211.857 135.681 215.183 132.23 219.338 132.23H239.789C243.842 132.23 247.127 128.939 247.127 124.88V90.5334C247.127 86.4744 243.842 83.1839 239.789 83.1839H216.79C212.829 83.1839 209.583 80.0354 209.456 76.0702L208.886 58.278C208.759 54.3129 205.513 51.1643 201.552 51.1643H163.917C159.772 51.1643 156.45 54.6002 156.583 58.7494L157.123 75.5988C157.256 79.748 153.933 83.1839 149.788 83.1839H21.8548C17.802 83.1839 14.5166 86.4744 14.5166 90.5334V124.88C14.5166 128.939 17.802 132.23 21.8547 132.23H79.6131C84.2666 132.23 87.7521 136.518 86.5116 141.01C75.7937 179.82 48.8064 212.659 16.8035 227.116C14.0595 228.356 12.1988 231.031 12.1841 234.046L12.0001 271.792Z"/>
</mask>
<path d="M452.7 214.252C437.268 204.81 423.288 191.277 416.975 175.073C416.342 173.45 416.438 171.651 417.095 170.037C425.574 149.2 433.03 118.371 435.797 82.7695L420.883 78.9261C420.828 78.9117 420.772 78.8967 420.717 78.881C420.216 78.7389 419.732 78.5517 419.27 78.323L416.049 90.808C416.036 90.8551 416.024 90.9022 416.011 90.949C415.487 92.8197 414.365 94.4677 412.816 95.6417C411.268 96.8157 409.378 97.4512 407.434 97.4512C405.49 97.4512 403.6 96.8157 402.051 95.6417C400.503 94.4678 399.381 92.8197 398.857 90.949C398.844 90.9018 398.831 90.8544 398.819 90.8069L393.187 68.9657L382.316 66.1641H262.067C258.132 66.1641 254.942 69.3522 254.942 73.2849V106.317C254.942 110.25 258.132 113.438 262.067 113.438H370.913C375.098 113.438 378.398 117.036 377.803 121.176C369.755 177.183 329.34 221.416 255.556 229.299C251.851 229.695 248.966 232.777 248.966 236.502V270.329C248.966 274.528 252.596 277.821 256.768 277.327C314.237 270.52 352.256 250.481 377.556 222.369C380.964 218.583 387.234 219.028 390.171 223.188C401.495 239.227 419.133 255.407 442.382 266.521L455.932 226.575C456.534 224.798 456.424 222.704 455.506 220.716C454.519 218.58 453.584 216.424 452.7 214.252Z" fill="#FF74A7"/>
<path d="M400.086 67.187C399.768 65.9548 399.125 64.8303 398.225 63.9306C397.325 63.0308 396.2 62.3885 394.967 62.0707L373.111 56.4381C372.738 56.3324 372.41 56.1079 372.176 55.7988C371.942 55.4898 371.816 55.113 371.816 54.7256C371.816 54.3382 371.942 53.9614 372.176 53.6523C372.41 53.3433 372.738 53.1188 373.111 53.013L394.967 47.3769C396.199 47.0594 397.324 46.4177 398.224 45.5186C399.125 44.6194 399.768 43.4957 400.086 42.2642L405.722 20.4212C405.827 20.0471 406.051 19.7175 406.361 19.4827C406.671 19.2479 407.049 19.1208 407.437 19.1208C407.826 19.1208 408.204 19.2479 408.514 19.4827C408.824 19.7175 409.048 20.0471 409.153 20.4212L414.785 42.2642C415.103 43.4964 415.746 44.6208 416.646 45.5206C417.546 46.4204 418.672 47.0626 419.905 47.3805L441.761 53.0095C442.137 53.1131 442.468 53.3371 442.704 53.6471C442.94 53.9571 443.068 54.3359 443.068 54.7256C443.068 55.1152 442.94 55.4941 442.704 55.8041C442.468 56.1141 442.137 56.3381 441.761 56.4417L419.905 62.0707C418.672 62.3885 417.546 63.0308 416.646 63.9306C415.746 64.8303 415.103 65.9548 414.785 67.187L409.149 89.03C409.044 89.4041 408.82 89.7337 408.51 89.9685C408.201 90.2033 407.823 90.3304 407.434 90.3304C407.045 90.3304 406.667 90.2033 406.357 89.9685C406.048 89.7337 405.823 89.4041 405.719 89.03L400.086 67.187Z" fill="#FF74A7"/>
<path d="M442.893 80.0923C442.655 79.1682 442.173 78.3248 441.498 77.65C440.823 76.9752 439.979 76.4935 439.054 76.2551L422.662 72.0308C422.383 71.9515 422.137 71.7832 421.961 71.5514C421.786 71.3196 421.691 71.037 421.691 70.7465C421.691 70.4559 421.786 70.1733 421.961 69.9415C422.137 69.7097 422.383 69.5414 422.662 69.4621L439.054 65.2351C439.978 64.9969 440.822 64.5157 441.497 63.8414C442.172 63.167 442.655 62.3243 442.893 61.4007L447.12 45.0188C447.199 44.7382 447.367 44.491 447.599 44.3149C447.832 44.1388 448.115 44.0435 448.407 44.0435C448.698 44.0435 448.982 44.1388 449.214 44.3149C449.446 44.491 449.615 44.7382 449.693 45.0188L453.917 61.4007C454.156 62.3248 454.638 63.1681 455.313 63.8429C455.988 64.5177 456.832 64.9994 457.757 65.2378L474.149 69.4594C474.43 69.5371 474.679 69.7051 474.856 69.9376C475.033 70.1701 475.129 70.4542 475.129 70.7465C475.129 71.0387 475.033 71.3228 474.856 71.5553C474.679 71.7878 474.43 71.9558 474.149 72.0335L457.757 76.2551C456.832 76.4935 455.988 76.9752 455.313 77.65C454.638 78.3248 454.156 79.1682 453.917 80.0923L449.691 96.4741C449.612 96.7547 449.444 97.0019 449.211 97.178C448.979 97.3541 448.696 97.4494 448.404 97.4494C448.113 97.4494 447.829 97.3541 447.597 97.178C447.364 97.0019 447.196 96.7547 447.118 96.4741L442.893 80.0923Z" fill="#FF74A7"/>
<path d="M1278 180.211C1278 184.481 1274.27 187.791 1270.02 187.281L1171.6 175.458C1167.36 174.949 1163.62 178.258 1163.62 182.528V272.761C1163.62 276.693 1160.43 279.881 1156.5 279.881H1119.95C1116.01 279.881 1112.82 276.693 1112.82 272.761V65.4059C1112.82 61.4732 1116.01 58.2851 1119.95 58.2851H1156.5C1160.43 58.2851 1163.62 61.4732 1163.62 65.4059V120.144C1163.62 123.76 1166.33 126.801 1169.93 127.218L1271.7 139.004C1275.29 139.42 1278 142.462 1278 146.078V180.211Z" fill="#FF74A7"/>
<path d="M803.125 111.691C806.419 111.691 809.194 114.156 809.588 117.433L811.099 129.991C811.52 133.491 814.64 136.022 818.144 135.706L909.864 127.44C913.673 127.097 916.963 130.112 916.882 133.943C915.52 198.215 895.252 226.638 847.972 237.729C844.008 238.659 840.291 235.573 840.291 231.494V201.819C840.291 198.519 842.771 195.791 845.984 195.067C857.346 192.509 864.251 186.792 867.578 178.715C869.178 174.831 865.644 171.171 861.471 171.581L823.519 175.311C819.871 175.669 817.238 178.974 817.696 182.618L828.903 271.691C829.393 275.586 826.363 279.029 822.445 279.029H792.61C789.313 279.029 786.537 276.559 786.146 273.279L775.757 185.931C775.337 182.401 772.173 179.858 768.643 180.214L753.042 181.784C749.209 182.17 745.882 179.155 745.882 175.295V148.079C745.882 144.711 748.44 141.897 751.786 141.584L763.28 140.509C766.95 140.166 769.603 136.841 769.131 133.179L767.306 119.05C766.803 115.148 769.835 111.691 773.762 111.691H803.125Z" fill="#FF74A7"/>
<path d="M1054.79 136.626C1054.83 132.694 1058.02 129.493 1061.95 129.493H1087.89C1091.82 129.493 1095.02 132.716 1094.95 136.648C1093.24 231.833 1056.62 269.638 961.483 275.111C957.446 275.344 954.052 272.106 954.052 268.065V242.151C954.052 238.376 957.023 235.262 960.791 235.004C1037.72 229.731 1053.89 212.027 1054.79 136.626ZM967.319 129.917C970.916 129.917 973.949 132.596 974.391 136.163L981.885 196.711C982.411 200.958 979.096 204.706 974.814 204.706H950.251C946.654 204.706 943.621 202.026 943.18 198.459L935.686 137.912C935.16 133.665 938.475 129.917 942.757 129.917H967.319ZM1021.16 129.917C1024.76 129.917 1027.8 132.607 1028.23 136.183L1035.56 196.73C1036.07 200.971 1032.76 204.706 1028.48 204.706H1004.74C1001.14 204.706 998.111 202.026 997.67 198.459L990.176 137.912C989.65 133.665 992.965 129.917 997.247 129.917H1021.16Z" fill="#FF74A7"/>
<path fill-rule="evenodd" clip-rule="evenodd" d="M532.901 288.615C529.4 287.001 525.417 286.674 521.766 287.911L459.716 308.932C448.532 312.721 437.855 302.05 441.646 290.872L462.679 228.861C463.917 225.212 463.591 221.231 461.975 217.732C448.378 188.292 445.027 155.081 452.563 123.424C460.565 89.8082 480.318 60.1541 508.262 39.8055C536.206 19.4569 570.503 9.75186 604.973 12.4394C639.443 15.1269 671.819 30.0302 696.268 54.4636C720.716 78.8971 735.628 111.254 738.317 145.703C741.006 180.153 731.295 214.429 710.935 242.356C690.574 270.283 660.902 290.024 627.266 298.022C595.589 305.553 562.359 302.204 532.901 288.615ZM688.844 111.61C692.713 111.52 695.802 108.359 695.802 104.492V76.2997C695.802 72.2849 692.483 69.0639 688.468 69.182L498.618 74.7657C494.766 74.879 491.702 78.0323 491.702 81.8834V109.663C491.702 113.675 495.017 116.895 499.029 116.781L582.07 114.426C586.083 114.312 589.403 117.53 589.384 121.542C589.36 126.588 589.293 132.455 589.106 137.197C588.963 140.817 585.952 143.54 582.327 143.54H492.942C489.007 143.54 485.817 146.728 485.817 150.661V178.901C485.817 182.834 489.007 186.022 492.942 186.022H574.79C579.446 186.022 582.875 190.456 580.787 194.615C572.6 210.927 552.275 223.953 506.278 227.183C502.483 227.449 499.471 230.571 499.471 234.374V264.423C499.471 268.495 502.893 271.745 506.957 271.46C585.867 265.912 621.16 236.857 630.242 192.088C630.945 188.626 633.92 186.022 637.455 186.022H692.444C696.379 186.022 699.569 182.834 699.569 178.901V150.661C699.569 146.728 696.379 143.54 692.444 143.54H643.382C639.263 143.54 635.966 140.06 636.066 135.945C636.158 132.157 636.217 127.855 636.271 123.87C636.292 122.366 636.312 120.906 636.333 119.537C636.39 115.77 639.42 112.765 643.189 112.677L688.844 111.61Z" fill="#FF74A7"/>
<path d="M988.305 372.246H949.163C937.346 372.246 931.561 365.85 931.438 358.469C931.315 352.072 933.777 347.151 940.054 343.461L964.057 329.191H933.9V310.739H971.442C983.259 310.739 989.044 317.135 989.167 324.516C989.29 330.913 986.828 335.834 980.551 339.524L956.548 353.794H988.305V372.246Z" fill="#FF74A7"/>
<path fill-rule="evenodd" clip-rule="evenodd" d="M842.07 330.79C842.07 355.517 860.78 374.092 885.89 374.092C911 374.092 929.71 355.517 929.71 330.79C929.71 306.064 911 287.489 885.89 287.489C860.78 287.489 842.07 306.064 842.07 330.79ZM907.882 330.791C907.882 318.836 898.036 309.145 885.89 309.145C873.744 309.145 863.899 318.836 863.899 330.791C863.893 334.734 864.987 338.603 867.061 341.977L865.1 348.54C864.987 348.917 864.98 349.317 865.078 349.697C865.177 350.078 865.378 350.425 865.66 350.703C865.942 350.981 866.295 351.179 866.682 351.276C867.068 351.373 867.474 351.365 867.857 351.254L874.525 349.324C877.953 351.366 881.884 352.442 885.89 352.436C898.036 352.436 907.882 342.746 907.882 330.791ZM875.861 328.495C876.479 327.886 877.318 327.544 878.193 327.544C879.068 327.544 879.907 327.886 880.526 328.495C881.145 329.104 881.492 329.93 881.492 330.791C881.492 331.652 881.145 332.478 880.526 333.087C879.907 333.696 879.068 334.038 878.193 334.038C877.318 334.038 876.479 333.696 875.861 333.087C875.242 332.478 874.895 331.652 874.895 330.791C874.895 329.93 875.242 329.104 875.861 328.495ZM891.255 328.495C891.874 327.886 892.713 327.544 893.588 327.544C894.462 327.544 895.301 327.886 895.92 328.495C896.539 329.104 896.886 329.93 896.886 330.791C896.886 331.652 896.539 332.478 895.92 333.087C895.301 333.696 894.462 334.038 893.588 334.038C892.713 334.038 891.874 333.696 891.255 333.087C890.636 332.478 890.289 331.652 890.289 330.791C890.289 329.93 890.636 329.104 891.255 328.495Z" fill="#FF74A7"/>
<path d="M1047.08 371.631C1024.07 371.631 1006.52 354.068 1006.52 331.747C1006.52 309.426 1024.07 291.864 1047.08 291.864C1059.66 291.864 1072.04 298.006 1078.29 308.788C1079.21 310.385 1078.53 312.377 1076.91 313.271L1065.66 319.497C1063.95 320.445 1061.83 319.804 1060.64 318.245C1057.61 314.243 1053.39 311.692 1046.16 311.692C1035.34 311.692 1028.17 319.85 1028.17 331.747C1028.17 343.644 1035.12 351.802 1046.16 351.802C1053.28 351.802 1057.69 349.332 1060.63 345.439C1061.85 343.824 1064.04 343.1 1065.81 344.08L1076.91 350.223C1078.53 351.117 1079.21 353.109 1078.29 354.706C1072.04 365.489 1059.66 371.631 1047.08 371.631Z" fill="#FF74A7"/>
<path d="M1108.78 366.371C1108.78 368.337 1107.19 369.931 1105.22 369.931H1091.84C1089.87 369.931 1088.28 368.337 1088.28 366.371V290.779C1088.28 288.812 1089.87 287.218 1091.84 287.218H1105.22C1107.19 287.218 1108.78 288.812 1108.78 290.779V308.924C1108.78 311.639 1111.76 313.422 1114.37 312.679C1116.88 311.965 1119.6 311.579 1122.45 311.579C1140.33 311.579 1149.22 322.343 1149.22 340.585V366.351C1149.22 368.325 1147.61 369.922 1145.64 369.911L1132.26 369.837C1130.3 369.826 1128.72 368.236 1128.72 366.277V342.738C1128.72 336.393 1125.3 330.727 1119.15 330.727C1112.66 330.727 1108.78 335.713 1108.78 342.738V366.371Z" fill="#FF74A7"/>
<path d="M1186.27 371.631C1169.64 371.631 1158.36 358.034 1158.36 341.491C1158.36 325.062 1171.92 311.466 1189.69 311.466C1207.91 311.466 1221.01 324.156 1221.01 341.491V366.371C1221.01 368.337 1219.42 369.931 1217.45 369.931H1202.86C1202.19 369.931 1201.65 369.388 1201.65 368.719C1201.65 367.632 1200.28 367.051 1199.4 367.698C1196 370.22 1191.62 371.631 1186.27 371.631ZM1189.69 352.482C1196.18 352.482 1200.51 347.497 1200.51 341.605C1200.51 335.6 1196.18 330.614 1189.69 330.614C1183.2 330.614 1178.87 335.6 1178.87 341.605C1178.87 347.497 1183.2 352.482 1189.69 352.482Z" fill="#FF74A7"/>
<path d="M1264.74 371.744C1246.17 371.744 1237.52 360.867 1237.52 345.797V333.835C1237.52 331.868 1235.92 330.274 1233.95 330.274H1231.4C1229.43 330.274 1227.83 328.68 1227.83 326.714V316.839C1227.83 314.873 1229.43 313.278 1231.4 313.278H1233.95C1235.92 313.278 1237.52 311.684 1237.52 309.718V302.676C1237.52 300.709 1239.11 299.115 1241.08 299.115H1254.46C1256.42 299.115 1258.02 300.709 1258.02 302.676V309.718C1258.02 311.684 1259.61 313.278 1261.58 313.278H1273.14C1275.1 313.278 1276.7 314.873 1276.7 316.839V326.714C1276.7 328.68 1275.1 330.274 1273.14 330.274H1261.58C1259.61 330.274 1258.02 331.868 1258.02 333.835V345.117C1258.02 350.556 1261.32 353.615 1266.68 353.615C1267.92 353.615 1269.46 353.464 1271.04 353.171C1273.69 352.679 1276.7 354.618 1276.7 357.313V367.273C1276.7 368.564 1276 369.775 1274.79 370.203C1271.86 371.23 1267.86 371.744 1264.74 371.744Z" fill="#FF74A7"/>
<path d="M12.0001 271.792C11.9761 276.71 16.702 280.261 21.3343 278.627C83.2944 256.769 122.312 205.019 138.593 137.983C139.407 134.633 142.377 132.23 145.819 132.23H152.015C155.992 132.23 159.245 135.403 159.35 139.385L162.819 270.434C162.924 274.416 166.177 277.589 170.154 277.589H209.263C213.417 277.589 216.743 274.138 216.596 269.98L212.004 139.839C211.857 135.681 215.183 132.23 219.338 132.23H239.789C243.842 132.23 247.127 128.939 247.127 124.88V90.5334C247.127 86.4744 243.842 83.1839 239.789 83.1839H216.79C212.829 83.1839 209.583 80.0354 209.456 76.0702L208.886 58.278C208.759 54.3129 205.513 51.1643 201.552 51.1643H163.917C159.772 51.1643 156.45 54.6002 156.583 58.7494L157.123 75.5988C157.256 79.748 153.933 83.1839 149.788 83.1839H21.8548C17.802 83.1839 14.5166 86.4744 14.5166 90.5334V124.88C14.5166 128.939 17.802 132.23 21.8547 132.23H79.6131C84.2666 132.23 87.7521 136.518 86.5116 141.01C75.7937 179.82 48.8064 212.659 16.8035 227.116C14.0595 228.356 12.1988 231.031 12.1841 234.046L12.0001 271.792Z" fill="#FF74A7"/>
<path d="M452.7 214.252C437.268 204.81 423.288 191.277 416.975 175.073C416.342 173.45 416.438 171.651 417.095 170.037C425.574 149.2 433.03 118.371 435.797 82.7695L420.883 78.9261C420.828 78.9117 420.772 78.8967 420.717 78.881C420.216 78.7389 419.732 78.5517 419.27 78.323L416.049 90.808C416.036 90.8551 416.024 90.9022 416.011 90.949C415.487 92.8197 414.365 94.4677 412.816 95.6417C411.268 96.8157 409.378 97.4512 407.434 97.4512C405.49 97.4512 403.6 96.8157 402.051 95.6417C400.503 94.4678 399.381 92.8197 398.857 90.949C398.844 90.9018 398.831 90.8544 398.819 90.8069L393.187 68.9657L382.316 66.1641H262.067C258.132 66.1641 254.942 69.3522 254.942 73.2849V106.317C254.942 110.25 258.132 113.438 262.067 113.438H370.913C375.098 113.438 378.398 117.036 377.803 121.176C369.755 177.183 329.34 221.416 255.556 229.299C251.851 229.695 248.966 232.777 248.966 236.502V270.329C248.966 274.528 252.596 277.821 256.768 277.327C314.237 270.52 352.256 250.481 377.556 222.369C380.964 218.583 387.234 219.028 390.171 223.188C401.495 239.227 419.133 255.407 442.382 266.521L455.932 226.575C456.534 224.798 456.424 222.704 455.506 220.716C454.519 218.58 453.584 216.424 452.7 214.252Z" stroke="white" stroke-width="24" mask="url(#path-5-outside-1_78_1415)"/>
<path d="M400.086 67.187C399.768 65.9548 399.125 64.8303 398.225 63.9306C397.325 63.0308 396.2 62.3885 394.967 62.0707L373.111 56.4381C372.738 56.3324 372.41 56.1079 372.176 55.7988C371.942 55.4898 371.816 55.113 371.816 54.7256C371.816 54.3382 371.942 53.9614 372.176 53.6523C372.41 53.3433 372.738 53.1188 373.111 53.013L394.967 47.3769C396.199 47.0594 397.324 46.4177 398.224 45.5186C399.125 44.6194 399.768 43.4957 400.086 42.2642L405.722 20.4212C405.827 20.0471 406.051 19.7175 406.361 19.4827C406.671 19.2479 407.049 19.1208 407.437 19.1208C407.826 19.1208 408.204 19.2479 408.514 19.4827C408.824 19.7175 409.048 20.0471 409.153 20.4212L414.785 42.2642C415.103 43.4964 415.746 44.6208 416.646 45.5206C417.546 46.4204 418.672 47.0626 419.905 47.3805L441.761 53.0095C442.137 53.1131 442.468 53.3371 442.704 53.6471C442.94 53.9571 443.068 54.3359 443.068 54.7256C443.068 55.1152 442.94 55.4941 442.704 55.8041C442.468 56.1141 442.137 56.3381 441.761 56.4417L419.905 62.0707C418.672 62.3885 417.546 63.0308 416.646 63.9306C415.746 64.8303 415.103 65.9548 414.785 67.187L409.149 89.03C409.044 89.4041 408.82 89.7337 408.51 89.9685C408.201 90.2033 407.823 90.3304 407.434 90.3304C407.045 90.3304 406.667 90.2033 406.357 89.9685C406.048 89.7337 405.823 89.4041 405.719 89.03L400.086 67.187Z" stroke="white" stroke-width="24" mask="url(#path-5-outside-1_78_1415)"/>
<path d="M442.893 80.0923C442.655 79.1682 442.173 78.3248 441.498 77.65C440.823 76.9752 439.979 76.4935 439.054 76.2551L422.662 72.0308C422.383 71.9515 422.137 71.7832 421.961 71.5514C421.786 71.3196 421.691 71.037 421.691 70.7465C421.691 70.4559 421.786 70.1733 421.961 69.9415C422.137 69.7097 422.383 69.5414 422.662 69.4621L439.054 65.2351C439.978 64.9969 440.822 64.5157 441.497 63.8414C442.172 63.167 442.655 62.3243 442.893 61.4007L447.12 45.0188C447.199 44.7382 447.367 44.491 447.599 44.3149C447.832 44.1388 448.115 44.0435 448.407 44.0435C448.698 44.0435 448.982 44.1388 449.214 44.3149C449.446 44.491 449.615 44.7382 449.693 45.0188L453.917 61.4007C454.156 62.3248 454.638 63.1681 455.313 63.8429C455.988 64.5177 456.832 64.9994 457.757 65.2378L474.149 69.4594C474.43 69.5371 474.679 69.7051 474.856 69.9376C475.033 70.1701 475.129 70.4542 475.129 70.7465C475.129 71.0387 475.033 71.3228 474.856 71.5553C474.679 71.7878 474.43 71.9558 474.149 72.0335L457.757 76.2551C456.832 76.4935 455.988 76.9752 455.313 77.65C454.638 78.3248 454.156 79.1682 453.917 80.0923L449.691 96.4741C449.612 96.7547 449.444 97.0019 449.211 97.178C448.979 97.3541 448.696 97.4494 448.404 97.4494C448.113 97.4494 447.829 97.3541 447.597 97.178C447.364 97.0019 447.196 96.7547 447.118 96.4741L442.893 80.0923Z" stroke="white" stroke-width="24" mask="url(#path-5-outside-1_78_1415)"/>
<path d="M1278 180.211C1278 184.481 1274.27 187.791 1270.02 187.281L1171.6 175.458C1167.36 174.949 1163.62 178.258 1163.62 182.528V272.761C1163.62 276.693 1160.43 279.881 1156.5 279.881H1119.95C1116.01 279.881 1112.82 276.693 1112.82 272.761V65.4059C1112.82 61.4732 1116.01 58.2851 1119.95 58.2851H1156.5C1160.43 58.2851 1163.62 61.4732 1163.62 65.4059V120.144C1163.62 123.76 1166.33 126.801 1169.93 127.218L1271.7 139.004C1275.29 139.42 1278 142.462 1278 146.078V180.211Z" stroke="white" stroke-width="24" mask="url(#path-5-outside-1_78_1415)"/>
<path d="M803.125 111.691C806.419 111.691 809.194 114.156 809.588 117.433L811.099 129.991C811.52 133.491 814.64 136.022 818.144 135.706L909.864 127.44C913.673 127.097 916.963 130.112 916.882 133.943C915.52 198.215 895.252 226.638 847.972 237.729C844.008 238.659 840.291 235.573 840.291 231.494V201.819C840.291 198.519 842.771 195.791 845.984 195.067C857.346 192.509 864.251 186.792 867.578 178.715C869.178 174.831 865.644 171.171 861.471 171.581L823.519 175.311C819.871 175.669 817.238 178.974 817.696 182.618L828.903 271.691C829.393 275.586 826.363 279.029 822.445 279.029H792.61C789.313 279.029 786.537 276.559 786.146 273.279L775.757 185.931C775.337 182.401 772.173 179.858 768.643 180.214L753.042 181.784C749.209 182.17 745.882 179.155 745.882 175.295V148.079C745.882 144.711 748.44 141.897 751.786 141.584L763.28 140.509C766.95 140.166 769.603 136.841 769.131 133.179L767.306 119.05C766.803 115.148 769.835 111.691 773.762 111.691H803.125Z" stroke="white" stroke-width="24" mask="url(#path-5-outside-1_78_1415)"/>
<path d="M1054.79 136.626C1054.83 132.694 1058.02 129.493 1061.95 129.493H1087.89C1091.82 129.493 1095.02 132.716 1094.95 136.648C1093.24 231.833 1056.62 269.638 961.483 275.111C957.446 275.344 954.052 272.106 954.052 268.065V242.151C954.052 238.376 957.023 235.262 960.791 235.004C1037.72 229.731 1053.89 212.027 1054.79 136.626ZM967.319 129.917C970.916 129.917 973.949 132.596 974.391 136.163L981.885 196.711C982.411 200.958 979.096 204.706 974.814 204.706H950.251C946.654 204.706 943.621 202.026 943.18 198.459L935.686 137.912C935.16 133.665 938.475 129.917 942.757 129.917H967.319ZM1021.16 129.917C1024.76 129.917 1027.8 132.607 1028.23 136.183L1035.56 196.73C1036.07 200.971 1032.76 204.706 1028.48 204.706H1004.74C1001.14 204.706 998.111 202.026 997.67 198.459L990.176 137.912C989.65 133.665 992.965 129.917 997.247 129.917H1021.16Z" stroke="white" stroke-width="24" mask="url(#path-5-outside-1_78_1415)"/>
<path fill-rule="evenodd" clip-rule="evenodd" d="M532.901 288.615C529.4 287.001 525.417 286.674 521.766 287.911L459.716 308.932C448.532 312.721 437.855 302.05 441.646 290.872L462.679 228.861C463.917 225.212 463.591 221.231 461.975 217.732C448.378 188.292 445.027 155.081 452.563 123.424C460.565 89.8082 480.318 60.1541 508.262 39.8055C536.206 19.4569 570.503 9.75186 604.973 12.4394C639.443 15.1269 671.819 30.0302 696.268 54.4636C720.716 78.8971 735.628 111.254 738.317 145.703C741.006 180.153 731.295 214.429 710.935 242.356C690.574 270.283 660.902 290.024 627.266 298.022C595.589 305.553 562.359 302.204 532.901 288.615ZM688.844 111.61C692.713 111.52 695.802 108.359 695.802 104.492V76.2997C695.802 72.2849 692.483 69.0639 688.468 69.182L498.618 74.7657C494.766 74.879 491.702 78.0323 491.702 81.8834V109.663C491.702 113.675 495.017 116.895 499.029 116.781L582.07 114.426C586.083 114.312 589.403 117.53 589.384 121.542C589.36 126.588 589.293 132.455 589.106 137.197C588.963 140.817 585.952 143.54 582.327 143.54H492.942C489.007 143.54 485.817 146.728 485.817 150.661V178.901C485.817 182.834 489.007 186.022 492.942 186.022H574.79C579.446 186.022 582.875 190.456 580.787 194.615C572.6 210.927 552.275 223.953 506.278 227.183C502.483 227.449 499.471 230.571 499.471 234.374V264.423C499.471 268.495 502.893 271.745 506.957 271.46C585.867 265.912 621.16 236.857 630.242 192.088C630.945 188.626 633.92 186.022 637.455 186.022H692.444C696.379 186.022 699.569 182.834 699.569 178.901V150.661C699.569 146.728 696.379 143.54 692.444 143.54H643.382C639.263 143.54 635.966 140.06 636.066 135.945C636.158 132.157 636.217 127.855 636.271 123.87C636.292 122.366 636.312 120.906 636.333 119.537C636.39 115.77 639.42 112.765 643.189 112.677L688.844 111.61Z" stroke="white" stroke-width="24" mask="url(#path-5-outside-1_78_1415)"/>
<path d="M988.305 372.246H949.163C937.346 372.246 931.561 365.85 931.438 358.469C931.315 352.072 933.777 347.151 940.054 343.461L964.057 329.191H933.9V310.739H971.442C983.259 310.739 989.044 317.135 989.167 324.516C989.29 330.913 986.828 335.834 980.551 339.524L956.548 353.794H988.305V372.246Z" stroke="white" stroke-width="24" mask="url(#path-5-outside-1_78_1415)"/>
<path fill-rule="evenodd" clip-rule="evenodd" d="M842.07 330.79C842.07 355.517 860.78 374.092 885.89 374.092C911 374.092 929.71 355.517 929.71 330.79C929.71 306.064 911 287.489 885.89 287.489C860.78 287.489 842.07 306.064 842.07 330.79ZM907.882 330.791C907.882 318.836 898.036 309.145 885.89 309.145C873.744 309.145 863.899 318.836 863.899 330.791C863.893 334.734 864.987 338.603 867.061 341.977L865.1 348.54C864.987 348.917 864.98 349.317 865.078 349.697C865.177 350.078 865.378 350.425 865.66 350.703C865.942 350.981 866.295 351.179 866.682 351.276C867.068 351.373 867.474 351.365 867.857 351.254L874.525 349.324C877.953 351.366 881.884 352.442 885.89 352.436C898.036 352.436 907.882 342.746 907.882 330.791ZM875.861 328.495C876.479 327.886 877.318 327.544 878.193 327.544C879.068 327.544 879.907 327.886 880.526 328.495C881.145 329.104 881.492 329.93 881.492 330.791C881.492 331.652 881.145 332.478 880.526 333.087C879.907 333.696 879.068 334.038 878.193 334.038C877.318 334.038 876.479 333.696 875.861 333.087C875.242 332.478 874.895 331.652 874.895 330.791C874.895 329.93 875.242 329.104 875.861 328.495ZM891.255 328.495C891.874 327.886 892.713 327.544 893.588 327.544C894.462 327.544 895.301 327.886 895.92 328.495C896.539 329.104 896.886 329.93 896.886 330.791C896.886 331.652 896.539 332.478 895.92 333.087C895.301 333.696 894.462 334.038 893.588 334.038C892.713 334.038 891.874 333.696 891.255 333.087C890.636 332.478 890.289 331.652 890.289 330.791C890.289 329.93 890.636 329.104 891.255 328.495Z" stroke="white" stroke-width="24" mask="url(#path-5-outside-1_78_1415)"/>
<path d="M1047.08 371.631C1024.07 371.631 1006.52 354.068 1006.52 331.747C1006.52 309.426 1024.07 291.864 1047.08 291.864C1059.66 291.864 1072.04 298.006 1078.29 308.788C1079.21 310.385 1078.53 312.377 1076.91 313.271L1065.66 319.497C1063.95 320.445 1061.83 319.804 1060.64 318.245C1057.61 314.243 1053.39 311.692 1046.16 311.692C1035.34 311.692 1028.17 319.85 1028.17 331.747C1028.17 343.644 1035.12 351.802 1046.16 351.802C1053.28 351.802 1057.69 349.332 1060.63 345.439C1061.85 343.824 1064.04 343.1 1065.81 344.08L1076.91 350.223C1078.53 351.117 1079.21 353.109 1078.29 354.706C1072.04 365.489 1059.66 371.631 1047.08 371.631Z" stroke="white" stroke-width="24" mask="url(#path-5-outside-1_78_1415)"/>
<path d="M1108.78 366.371C1108.78 368.337 1107.19 369.931 1105.22 369.931H1091.84C1089.87 369.931 1088.28 368.337 1088.28 366.371V290.779C1088.28 288.812 1089.87 287.218 1091.84 287.218H1105.22C1107.19 287.218 1108.78 288.812 1108.78 290.779V308.924C1108.78 311.639 1111.76 313.422 1114.37 312.679C1116.88 311.965 1119.6 311.579 1122.45 311.579C1140.33 311.579 1149.22 322.343 1149.22 340.585V366.351C1149.22 368.325 1147.61 369.922 1145.64 369.911L1132.26 369.837C1130.3 369.826 1128.72 368.236 1128.72 366.277V342.738C1128.72 336.393 1125.3 330.727 1119.15 330.727C1112.66 330.727 1108.78 335.713 1108.78 342.738V366.371Z" stroke="white" stroke-width="24" mask="url(#path-5-outside-1_78_1415)"/>
<path d="M1186.27 371.631C1169.64 371.631 1158.36 358.034 1158.36 341.491C1158.36 325.062 1171.92 311.466 1189.69 311.466C1207.91 311.466 1221.01 324.156 1221.01 341.491V366.371C1221.01 368.337 1219.42 369.931 1217.45 369.931H1202.86C1202.19 369.931 1201.65 369.388 1201.65 368.719C1201.65 367.632 1200.28 367.051 1199.4 367.698C1196 370.22 1191.62 371.631 1186.27 371.631ZM1189.69 352.482C1196.18 352.482 1200.51 347.497 1200.51 341.605C1200.51 335.6 1196.18 330.614 1189.69 330.614C1183.2 330.614 1178.87 335.6 1178.87 341.605C1178.87 347.497 1183.2 352.482 1189.69 352.482Z" stroke="white" stroke-width="24" mask="url(#path-5-outside-1_78_1415)"/>
<path d="M1264.74 371.744C1246.17 371.744 1237.52 360.867 1237.52 345.797V333.835C1237.52 331.868 1235.92 330.274 1233.95 330.274H1231.4C1229.43 330.274 1227.83 328.68 1227.83 326.714V316.839C1227.83 314.873 1229.43 313.278 1231.4 313.278H1233.95C1235.92 313.278 1237.52 311.684 1237.52 309.718V302.676C1237.52 300.709 1239.11 299.115 1241.08 299.115H1254.46C1256.42 299.115 1258.02 300.709 1258.02 302.676V309.718C1258.02 311.684 1259.61 313.278 1261.58 313.278H1273.14C1275.1 313.278 1276.7 314.873 1276.7 316.839V326.714C1276.7 328.68 1275.1 330.274 1273.14 330.274H1261.58C1259.61 330.274 1258.02 331.868 1258.02 333.835V345.117C1258.02 350.556 1261.32 353.615 1266.68 353.615C1267.92 353.615 1269.46 353.464 1271.04 353.171C1273.69 352.679 1276.7 354.618 1276.7 357.313V367.273C1276.7 368.564 1276 369.775 1274.79 370.203C1271.86 371.23 1267.86 371.744 1264.74 371.744Z" stroke="white" stroke-width="24" mask="url(#path-5-outside-1_78_1415)"/>
<path d="M12.0001 271.792C11.9761 276.71 16.702 280.261 21.3343 278.627C83.2944 256.769 122.312 205.019 138.593 137.983C139.407 134.633 142.377 132.23 145.819 132.23H152.015C155.992 132.23 159.245 135.403 159.35 139.385L162.819 270.434C162.924 274.416 166.177 277.589 170.154 277.589H209.263C213.417 277.589 216.743 274.138 216.596 269.98L212.004 139.839C211.857 135.681 215.183 132.23 219.338 132.23H239.789C243.842 132.23 247.127 128.939 247.127 124.88V90.5334C247.127 86.4744 243.842 83.1839 239.789 83.1839H216.79C212.829 83.1839 209.583 80.0354 209.456 76.0702L208.886 58.278C208.759 54.3129 205.513 51.1643 201.552 51.1643H163.917C159.772 51.1643 156.45 54.6002 156.583 58.7494L157.123 75.5988C157.256 79.748 153.933 83.1839 149.788 83.1839H21.8548C17.802 83.1839 14.5166 86.4744 14.5166 90.5334V124.88C14.5166 128.939 17.802 132.23 21.8547 132.23H79.6131C84.2666 132.23 87.7521 136.518 86.5116 141.01C75.7937 179.82 48.8064 212.659 16.8035 227.116C14.0595 228.356 12.1988 231.031 12.1841 234.046L12.0001 271.792Z" stroke="white" stroke-width="24" mask="url(#path-5-outside-1_78_1415)"/>
<g style="mix-blend-mode:screen" opacity="0.24">
<mask id="mask0_78_1415" style="mask-type:alpha" maskUnits="userSpaceOnUse" x="12" y="12" width="1266" height="363">
<path d="M452.7 214.252C437.268 204.81 423.288 191.277 416.975 175.073C416.342 173.45 416.438 171.651 417.095 170.037C425.574 149.2 433.03 118.371 435.797 82.7695L420.883 78.9261C420.828 78.9117 420.772 78.8967 420.717 78.881C420.216 78.7389 419.732 78.5517 419.27 78.323L416.049 90.808C416.036 90.8551 416.024 90.9022 416.011 90.949C415.487 92.8197 414.365 94.4677 412.816 95.6417C411.268 96.8157 409.378 97.4512 407.434 97.4512C405.49 97.4512 403.6 96.8157 402.051 95.6417C400.503 94.4678 399.381 92.8197 398.857 90.949C398.844 90.9018 398.831 90.8544 398.819 90.8069L393.187 68.9657L382.316 66.1641H262.067C258.132 66.1641 254.942 69.3522 254.942 73.2849V106.317C254.942 110.25 258.132 113.438 262.067 113.438H370.913C375.098 113.438 378.398 117.036 377.803 121.176C369.755 177.183 329.34 221.416 255.556 229.299C251.851 229.695 248.966 232.777 248.966 236.502V270.329C248.966 274.528 252.596 277.821 256.768 277.327C314.237 270.52 352.256 250.481 377.556 222.369C380.964 218.583 387.234 219.028 390.171 223.188C401.495 239.227 419.133 255.407 442.382 266.521L455.932 226.575C456.534 224.798 456.424 222.704 455.506 220.716C454.519 218.58 453.584 216.424 452.7 214.252Z" fill="#FF74A7"/>
<path d="M400.086 67.187C399.768 65.9548 399.125 64.8303 398.225 63.9306C397.325 63.0308 396.2 62.3885 394.967 62.0707L373.111 56.4381C372.738 56.3324 372.41 56.1079 372.176 55.7988C371.942 55.4898 371.816 55.113 371.816 54.7256C371.816 54.3382 371.942 53.9614 372.176 53.6523C372.41 53.3433 372.738 53.1188 373.111 53.013L394.967 47.3769C396.199 47.0594 397.324 46.4177 398.224 45.5186C399.125 44.6194 399.768 43.4957 400.086 42.2642L405.722 20.4212C405.827 20.0471 406.051 19.7175 406.361 19.4827C406.671 19.2479 407.049 19.1208 407.437 19.1208C407.826 19.1208 408.204 19.2479 408.514 19.4827C408.824 19.7175 409.048 20.0471 409.153 20.4212L414.785 42.2642C415.103 43.4964 415.746 44.6208 416.646 45.5206C417.546 46.4204 418.672 47.0626 419.905 47.3805L441.761 53.0095C442.137 53.1131 442.468 53.3371 442.704 53.6471C442.94 53.9571 443.068 54.3359 443.068 54.7256C443.068 55.1152 442.94 55.4941 442.704 55.8041C442.468 56.1141 442.137 56.3381 441.761 56.4417L419.905 62.0707C418.672 62.3885 417.546 63.0308 416.646 63.9306C415.746 64.8303 415.103 65.9548 414.785 67.187L409.149 89.03C409.044 89.4041 408.82 89.7337 408.51 89.9685C408.201 90.2033 407.823 90.3304 407.434 90.3304C407.045 90.3304 406.667 90.2033 406.357 89.9685C406.048 89.7337 405.823 89.4041 405.719 89.03L400.086 67.187Z" fill="#FF74A7"/>
<path d="M442.893 80.0923C442.655 79.1682 442.173 78.3248 441.498 77.65C440.823 76.9752 439.979 76.4935 439.054 76.2551L422.662 72.0308C422.383 71.9515 422.137 71.7832 421.961 71.5514C421.786 71.3196 421.691 71.037 421.691 70.7465C421.691 70.4559 421.786 70.1733 421.961 69.9415C422.137 69.7097 422.383 69.5414 422.662 69.4621L439.054 65.2351C439.978 64.9969 440.822 64.5157 441.497 63.8414C442.172 63.167 442.655 62.3243 442.893 61.4007L447.12 45.0188C447.199 44.7382 447.367 44.491 447.599 44.3149C447.832 44.1388 448.115 44.0435 448.407 44.0435C448.698 44.0435 448.982 44.1388 449.214 44.3149C449.446 44.491 449.615 44.7382 449.693 45.0188L453.917 61.4007C454.156 62.3248 454.638 63.1681 455.313 63.8429C455.988 64.5177 456.832 64.9994 457.757 65.2378L474.149 69.4594C474.43 69.5371 474.679 69.7051 474.856 69.9376C475.033 70.1701 475.129 70.4542 475.129 70.7465C475.129 71.0387 475.033 71.3228 474.856 71.5553C474.679 71.7878 474.43 71.9558 474.149 72.0335L457.757 76.2551C456.832 76.4935 455.988 76.9752 455.313 77.65C454.638 78.3248 454.156 79.1682 453.917 80.0923L449.691 96.4741C449.612 96.7547 449.444 97.0019 449.211 97.178C448.979 97.3541 448.696 97.4494 448.404 97.4494C448.113 97.4494 447.829 97.3541 447.597 97.178C447.364 97.0019 447.196 96.7547 447.118 96.4741L442.893 80.0923Z" fill="#FF74A7"/>
<path d="M1278 180.211C1278 184.481 1274.27 187.791 1270.02 187.281L1171.6 175.458C1167.36 174.949 1163.62 178.258 1163.62 182.528V272.761C1163.62 276.693 1160.43 279.881 1156.5 279.881H1119.95C1116.01 279.881 1112.82 276.693 1112.82 272.761V65.4059C1112.82 61.4732 1116.01 58.2851 1119.95 58.2851H1156.5C1160.43 58.2851 1163.62 61.4732 1163.62 65.4059V120.144C1163.62 123.76 1166.33 126.801 1169.93 127.218L1271.7 139.004C1275.29 139.42 1278 142.462 1278 146.078V180.211Z" fill="#FF74A7"/>
<path d="M803.125 111.691C806.419 111.691 809.194 114.156 809.588 117.433L811.099 129.991C811.52 133.491 814.64 136.022 818.144 135.706L909.864 127.44C913.673 127.097 916.963 130.112 916.882 133.943C915.52 198.215 895.252 226.638 847.972 237.729C844.008 238.659 840.291 235.573 840.291 231.494V201.819C840.291 198.519 842.771 195.791 845.984 195.067C857.346 192.509 864.251 186.792 867.578 178.715C869.178 174.831 865.644 171.171 861.471 171.581L823.519 175.311C819.871 175.669 817.238 178.974 817.696 182.618L828.903 271.691C829.393 275.586 826.363 279.029 822.445 279.029H792.61C789.313 279.029 786.537 276.559 786.146 273.279L775.757 185.931C775.337 182.401 772.173 179.858 768.643 180.214L753.042 181.784C749.209 182.17 745.882 179.155 745.882 175.295V148.079C745.882 144.711 748.44 141.897 751.786 141.584L763.28 140.509C766.95 140.166 769.603 136.841 769.131 133.179L767.306 119.05C766.803 115.148 769.835 111.691 773.762 111.691H803.125Z" fill="#FF74A7"/>
<path d="M1054.79 136.626C1054.83 132.694 1058.02 129.493 1061.95 129.493H1087.89C1091.82 129.493 1095.02 132.716 1094.95 136.648C1093.24 231.833 1056.62 269.638 961.483 275.111C957.446 275.344 954.052 272.106 954.052 268.065V242.151C954.052 238.376 957.023 235.262 960.791 235.004C1037.72 229.731 1053.89 212.027 1054.79 136.626ZM967.319 129.917C970.916 129.917 973.949 132.596 974.391 136.163L981.885 196.711C982.411 200.958 979.096 204.706 974.814 204.706H950.251C946.654 204.706 943.621 202.026 943.18 198.459L935.686 137.912C935.16 133.665 938.475 129.917 942.757 129.917H967.319ZM1021.16 129.917C1024.76 129.917 1027.8 132.607 1028.23 136.183L1035.56 196.73C1036.07 200.971 1032.76 204.706 1028.48 204.706H1004.74C1001.14 204.706 998.111 202.026 997.67 198.459L990.176 137.912C989.65 133.665 992.965 129.917 997.247 129.917H1021.16Z" fill="#FF74A7"/>
<path fill-rule="evenodd" clip-rule="evenodd" d="M532.901 288.615C529.4 287.001 525.417 286.674 521.766 287.911L459.716 308.932C448.532 312.721 437.855 302.05 441.646 290.872L462.679 228.861C463.917 225.212 463.591 221.231 461.975 217.732C448.378 188.292 445.027 155.081 452.563 123.424C460.565 89.8082 480.318 60.1541 508.262 39.8055C536.206 19.4569 570.503 9.75186 604.973 12.4394C639.443 15.1269 671.819 30.0302 696.268 54.4636C720.716 78.8971 735.628 111.254 738.317 145.703C741.006 180.153 731.295 214.429 710.935 242.356C690.574 270.283 660.902 290.024 627.266 298.022C595.589 305.553 562.359 302.204 532.901 288.615ZM688.844 111.61C692.713 111.52 695.802 108.359 695.802 104.492V76.2997C695.802 72.2849 692.483 69.0639 688.468 69.182L498.618 74.7657C494.766 74.879 491.702 78.0323 491.702 81.8834V109.663C491.702 113.675 495.017 116.895 499.029 116.781L582.07 114.426C586.083 114.312 589.403 117.53 589.384 121.542C589.36 126.588 589.293 132.455 589.106 137.197C588.963 140.817 585.952 143.54 582.327 143.54H492.942C489.007 143.54 485.817 146.728 485.817 150.661V178.901C485.817 182.834 489.007 186.022 492.942 186.022H574.79C579.446 186.022 582.875 190.456 580.787 194.615C572.6 210.927 552.275 223.953 506.278 227.183C502.483 227.449 499.471 230.571 499.471 234.374V264.423C499.471 268.495 502.893 271.745 506.957 271.46C585.867 265.912 621.16 236.857 630.242 192.088C630.945 188.626 633.92 186.022 637.455 186.022H692.444C696.379 186.022 699.569 182.834 699.569 178.901V150.661C699.569 146.728 696.379 143.54 692.444 143.54H643.382C639.263 143.54 635.966 140.06 636.066 135.945C636.158 132.157 636.217 127.855 636.271 123.87C636.292 122.366 636.312 120.906 636.333 119.537C636.39 115.77 639.42 112.765 643.189 112.677L688.844 111.61Z" fill="#FF74A7"/>
<path d="M988.305 372.246H949.163C937.346 372.246 931.561 365.85 931.438 358.469C931.315 352.072 933.777 347.151 940.054 343.461L964.057 329.191H933.9V310.739H971.442C983.259 310.739 989.044 317.135 989.167 324.516C989.29 330.913 986.828 335.834 980.551 339.524L956.548 353.794H988.305V372.246Z" fill="#FF74A7"/>
<path fill-rule="evenodd" clip-rule="evenodd" d="M842.07 330.79C842.07 355.517 860.78 374.092 885.89 374.092C911 374.092 929.71 355.517 929.71 330.79C929.71 306.064 911 287.489 885.89 287.489C860.78 287.489 842.07 306.064 842.07 330.79ZM907.882 330.791C907.882 318.836 898.036 309.145 885.89 309.145C873.744 309.145 863.899 318.836 863.899 330.791C863.893 334.734 864.987 338.603 867.061 341.977L865.1 348.54C864.987 348.917 864.98 349.317 865.078 349.697C865.177 350.078 865.378 350.425 865.66 350.703C865.942 350.981 866.295 351.179 866.682 351.276C867.068 351.373 867.474 351.365 867.857 351.254L874.525 349.324C877.953 351.366 881.884 352.442 885.89 352.436C898.036 352.436 907.882 342.746 907.882 330.791ZM875.861 328.495C876.479 327.886 877.318 327.544 878.193 327.544C879.068 327.544 879.907 327.886 880.526 328.495C881.145 329.104 881.492 329.93 881.492 330.791C881.492 331.652 881.145 332.478 880.526 333.087C879.907 333.696 879.068 334.038 878.193 334.038C877.318 334.038 876.479 333.696 875.861 333.087C875.242 332.478 874.895 331.652 874.895 330.791C874.895 329.93 875.242 329.104 875.861 328.495ZM891.255 328.495C891.874 327.886 892.713 327.544 893.588 327.544C894.462 327.544 895.301 327.886 895.92 328.495C896.539 329.104 896.886 329.93 896.886 330.791C896.886 331.652 896.539 332.478 895.92 333.087C895.301 333.696 894.462 334.038 893.588 334.038C892.713 334.038 891.874 333.696 891.255 333.087C890.636 332.478 890.289 331.652 890.289 330.791C890.289 329.93 890.636 329.104 891.255 328.495Z" fill="#FF74A7"/>
<path d="M1047.08 371.631C1024.07 371.631 1006.52 354.068 1006.52 331.747C1006.52 309.426 1024.07 291.864 1047.08 291.864C1059.66 291.864 1072.04 298.006 1078.29 308.788C1079.21 310.385 1078.53 312.377 1076.91 313.271L1065.66 319.497C1063.95 320.445 1061.83 319.804 1060.64 318.245C1057.61 314.243 1053.39 311.692 1046.16 311.692C1035.34 311.692 1028.17 319.85 1028.17 331.747C1028.17 343.644 1035.12 351.802 1046.16 351.802C1053.28 351.802 1057.69 349.332 1060.63 345.439C1061.85 343.824 1064.04 343.1 1065.81 344.08L1076.91 350.223C1078.53 351.117 1079.21 353.109 1078.29 354.706C1072.04 365.489 1059.66 371.631 1047.08 371.631Z" fill="#FF74A7"/>
<path d="M1108.78 366.371C1108.78 368.337 1107.19 369.931 1105.22 369.931H1091.84C1089.87 369.931 1088.28 368.337 1088.28 366.371V290.779C1088.28 288.812 1089.87 287.218 1091.84 287.218H1105.22C1107.19 287.218 1108.78 288.812 1108.78 290.779V308.924C1108.78 311.639 1111.76 313.422 1114.37 312.679C1116.88 311.965 1119.6 311.579 1122.45 311.579C1140.33 311.579 1149.22 322.343 1149.22 340.585V366.351C1149.22 368.325 1147.61 369.922 1145.64 369.911L1132.26 369.837C1130.3 369.826 1128.72 368.236 1128.72 366.277V342.738C1128.72 336.393 1125.3 330.727 1119.15 330.727C1112.66 330.727 1108.78 335.713 1108.78 342.738V366.371Z" fill="#FF74A7"/>
<path d="M1186.27 371.631C1169.64 371.631 1158.36 358.034 1158.36 341.491C1158.36 325.062 1171.92 311.466 1189.69 311.466C1207.91 311.466 1221.01 324.156 1221.01 341.491V366.371C1221.01 368.337 1219.42 369.931 1217.45 369.931H1202.86C1202.19 369.931 1201.65 369.388 1201.65 368.719C1201.65 367.632 1200.28 367.051 1199.4 367.698C1196 370.22 1191.62 371.631 1186.27 371.631ZM1189.69 352.482C1196.18 352.482 1200.51 347.497 1200.51 341.605C1200.51 335.6 1196.18 330.614 1189.69 330.614C1183.2 330.614 1178.87 335.6 1178.87 341.605C1178.87 347.497 1183.2 352.482 1189.69 352.482Z" fill="#FF74A7"/>
<path d="M1264.74 371.744C1246.17 371.744 1237.52 360.867 1237.52 345.797V333.835C1237.52 331.868 1235.92 330.274 1233.95 330.274H1231.4C1229.43 330.274 1227.83 328.68 1227.83 326.714V316.839C1227.83 314.873 1229.43 313.278 1231.4 313.278H1233.95C1235.92 313.278 1237.52 311.684 1237.52 309.718V302.676C1237.52 300.709 1239.11 299.115 1241.08 299.115H1254.46C1256.42 299.115 1258.02 300.709 1258.02 302.676V309.718C1258.02 311.684 1259.61 313.278 1261.58 313.278H1273.14C1275.1 313.278 1276.7 314.873 1276.7 316.839V326.714C1276.7 328.68 1275.1 330.274 1273.14 330.274H1261.58C1259.61 330.274 1258.02 331.868 1258.02 333.835V345.117C1258.02 350.556 1261.32 353.615 1266.68 353.615C1267.92 353.615 1269.46 353.464 1271.04 353.171C1273.69 352.679 1276.7 354.618 1276.7 357.313V367.273C1276.7 368.564 1276 369.775 1274.79 370.203C1271.86 371.23 1267.86 371.744 1264.74 371.744Z" fill="#FF74A7"/>
<path d="M12.0001 271.792C11.9761 276.71 16.702 280.261 21.3343 278.627C83.2944 256.769 122.312 205.019 138.593 137.983C139.407 134.633 142.377 132.23 145.819 132.23H152.015C155.992 132.23 159.245 135.403 159.35 139.385L162.819 270.434C162.924 274.416 166.177 277.589 170.154 277.589H209.263C213.417 277.589 216.743 274.138 216.596 269.98L212.004 139.839C211.857 135.681 215.183 132.23 219.338 132.23H239.789C243.842 132.23 247.127 128.939 247.127 124.88V90.5334C247.127 86.4744 243.842 83.1839 239.789 83.1839H216.79C212.829 83.1839 209.583 80.0354 209.456 76.0702L208.886 58.278C208.759 54.3129 205.513 51.1643 201.552 51.1643H163.917C159.772 51.1643 156.45 54.6002 156.583 58.7494L157.123 75.5988C157.256 79.748 153.933 83.1839 149.788 83.1839H21.8548C17.802 83.1839 14.5166 86.4744 14.5166 90.5334V124.88C14.5166 128.939 17.802 132.23 21.8547 132.23H79.6131C84.2666 132.23 87.7521 136.518 86.5116 141.01C75.7937 179.82 48.8064 212.659 16.8035 227.116C14.0595 228.356 12.1988 231.031 12.1841 234.046L12.0001 271.792Z" fill="#FF74A7"/>
</mask>
<g mask="url(#mask0_78_1415)">
<rect x="107.617" y="-115.083" width="188.091" height="509.113" transform="rotate(33.747 107.617 -115.083)" fill="white"/>
<path d="M248.922 10.1919L306.344 44.1026L441.535 271.983L248.922 373.647L248.922 10.1919Z" fill="white"/>
<path d="M513.875 10.1915L755.319 -23.2671L736.329 269.269L683.881 323.979L513.875 10.1915Z" fill="white"/>
<path d="M890.063 284.11L732.717 305.893L745.092 115.44L779.272 79.8216L890.063 284.11Z" fill="white"/>
<path d="M961.02 19.7566L1062.33 101.072L951.473 241.961L902.178 244.581L961.02 19.7566Z" fill="white"/>
<path d="M1252.68 74.396L1317.34 160.303L1155.85 291.19L1103.02 281.93L1252.68 74.396Z" fill="white"/>
</g>
</g>
</svg>
